<svg width="50" height="50" viewBox="0 0 50 50" fill="none" xmlns="http://www.w3.org/2000/svg">
<path d="M24.6666 46.2222C36.9396 46.2222 46.8888 36.273 46.8888 24C46.8888 11.727 36.9396 1.77778 24.6666 1.77778C12.3936 1.77778 2.44434 11.727 2.44434 24C2.44434 36.273 12.3936 46.2222 24.6666 46.2222Z" stroke="#111111" stroke-width="0.5"/>
<path d="M24.7779 43.4444C35.5168 43.4444 44.2224 34.7389 44.2224 24C44.2224 13.2611 35.5168 4.55556 24.7779 4.55556C14.0391 4.55556 5.3335 13.2611 5.3335 24C5.3335 34.7389 14.0391 43.4444 24.7779 43.4444Z" stroke="#111111"/>
<path opacity="0.9" d="M25 0L25.4839 1.07384L25 1.53405L24.5161 1.07384L25 0Z" fill="#111111"/>
<path opacity="0.9" d="M0 23.7778L1.12903 23.3176L1.6129 23.7778L1.12903 24.238L0 23.7778Z" fill="#111111"/>
<path opacity="0.9" d="M48.3872 23.7778L48.8711 23.3176L50.0001 23.7778L48.8711 24.238L48.3872 23.7778Z" fill="#111111"/>
<path opacity="0.7" d="M8.22559 7.82366L8.70946 7.36344L9.19333 7.82366L8.70946 8.28387L8.22559 7.82366Z" fill="#111111"/>
<path opacity="0.7" d="M40.8066 7.82366L41.2905 7.36344L41.7744 7.82366L41.2905 8.28387L40.8066 7.82366Z" fill="#111111"/>
<path opacity="0.7" d="M8.22559 39.7319L8.70946 39.2717L9.19333 39.7319L8.70946 40.1921L8.22559 39.7319Z" fill="#111111"/>
<path opacity="0.7" d="M40.3335 39.6824L40.8174 39.2222L41.3012 39.6824L40.8174 40.1427L40.3335 39.6824Z" fill="#111111"/>
<path d="M21.1245 18.6667C19.5083 17.1408 16.5992 14.2926 14.4443 11.4444C15.1985 11.4444 16.5992 12.4617 17.6767 13.8858C18.9696 15.5133 20.2625 17.1408 21.5554 18.6667H21.1245Z" fill="url(#paint0_linear_275_2071)" stroke="#AAAAAA" stroke-width="0.4"/>
<path d="M20.6771 19C18.2031 16.7999 14.5459 13.3998 10.8887 9.79967C11.7492 9.59966 13.4702 10.7997 14.9761 12.1998C16.9123 14.1998 18.8485 16.3999 20.9998 18.8L20.6771 19Z" fill="url(#paint1_linear_275_2071)" stroke="#AAAAAA" stroke-width="0.4"/>
<path d="M19.908 19.8889C16.7184 17.0658 12.4655 13.0329 8 8.59662C9.06322 8.29415 10.977 9.70568 12.6782 11.4197C15.0172 13.8395 17.3563 16.4609 20.3333 19.6872L19.908 19.8889Z" fill="url(#paint2_linear_275_2071)" stroke="#999999" stroke-width="0.4"/>
<path d="M19.0159 20.8889C14.9467 17.4769 9.8066 12.8607 4.6665 7.84303C5.84444 7.44162 8.09324 8.94691 10.0208 10.8536C12.805 13.6635 15.8034 16.6741 19.4443 20.6882L19.0159 20.8889Z" fill="url(#paint3_linear_275_2071)" stroke="#999999" stroke-width="0.4"/>
<path d="M18.1311 22.1111C13.4615 18.484 7.51852 13.0435 2 7.19985C3.2735 6.69609 5.82051 8.40887 7.94302 10.5247C11.1268 13.8495 14.5228 17.4765 18.5556 21.9096L18.1311 22.1111Z" fill="url(#paint4_linear_275_2071)" stroke="#888888" stroke-width="0.5"/>
<path d="M28.3196 18.6667C29.9358 17.1408 32.8449 14.2926 34.9998 11.4444C34.2456 11.4444 32.8449 12.4617 31.7675 13.8858C30.4745 15.5133 29.1816 17.1408 27.8887 18.6667H28.3196Z" fill="url(#paint5_linear_275_2071)" stroke="#AAAAAA" stroke-width="0.4"/>
<path d="M28.8748 19C31.3216 16.7999 34.9386 13.3998 38.5557 9.79967C37.7046 9.59966 36.0025 10.7997 34.5131 12.1998C32.5982 14.1998 30.6833 16.3999 28.5557 18.8L28.8748 19Z" fill="url(#paint6_linear_275_2071)" stroke="#AAAAAA" stroke-width="0.4"/>
<path d="M29.6475 19.8889C32.8371 17.0658 37.09 13.0329 41.5555 8.59662C40.4923 8.29415 38.5785 9.70568 36.8773 11.4197C34.5383 13.8395 32.1992 16.4609 29.2222 19.6872L29.6475 19.8889Z" fill="url(#paint7_linear_275_2071)" stroke="#999999" stroke-width="0.4"/>
<path d="M30.4283 20.8889C34.4976 17.4769 39.6377 12.8607 44.7778 7.84303C43.5998 7.44162 41.351 8.94691 39.4235 10.8536C36.6393 13.6635 33.6409 16.6741 30 20.6882L30.4283 20.8889Z" fill="url(#paint8_linear_275_2071)" stroke="#999999" stroke-width="0.4"/>
<path d="M31.4245 22.1111C36.094 18.484 42.037 13.0435 47.5556 7.19985C46.2821 6.69609 43.735 8.40887 41.6125 10.5247C38.4288 13.8495 35.0328 17.4765 31 21.9096L31.4245 22.1111Z" fill="url(#paint9_linear_275_2071)" stroke="#888888" stroke-width="0.5"/>
<path d="M22.9312 33.2222C22.2792 36.2536 21.1926 39.2849 19.8887 42.3163C20.5406 42.5184 21.6273 40.9016 22.4966 38.6787C23.3658 36.4557 23.5832 34.6369 23.3658 33.2222H22.9312Z" fill="url(#paint10_linear_275_2071)" stroke="#AAAAAA" stroke-width="0.4"/>
<path d="M24.407 34C24.407 37.4255 23.9751 40.6495 23.1113 43.8736C23.9751 44.0751 24.8389 42.2616 25.2708 40.045C25.7027 37.8285 25.2708 35.612 24.623 34H24.407Z" fill="url(#paint11_linear_275_2071)" stroke="#999999" stroke-width="0.4"/>
<path d="M25.9413 33.2222C26.5729 36.2536 27.6256 39.2849 28.8888 42.3163C28.2572 42.5184 27.2045 40.9016 26.3624 38.6787C25.5203 36.4557 25.3097 34.6369 25.5203 33.2222H25.9413Z" fill="url(#paint12_linear_275_2071)" stroke="#AAAAAA" stroke-width="0.4"/>
<path opacity="0.9" d="M24.3587 9.85294L24.6792 10.7578L25.6408 11.0594L24.6792 11.361L24.3587 12.2659L24.0382 11.361L23.0767 11.0594L24.0382 10.7578L24.3587 9.85294Z" fill="url(#paint13_linear_275_2071)"/>
<path opacity="0.7" d="M24.3588 10.4562L24.4656 10.9589L24.9998 11.0594L24.4656 11.16L24.3588 11.6627L24.252 11.16L23.7178 11.0594L24.252 10.9589L24.3588 10.4562Z" fill="white"/>
<path opacity="0.85" d="M11.3248 19.2032L11.5385 19.907L12.2864 20.1081L11.5385 20.3091L11.3248 21.0129L11.1111 20.3091L10.3633 20.1081L11.1111 19.907L11.3248 19.2032Z" fill="url(#paint14_linear_275_2071)"/>
<path opacity="0.85" d="M38.171 19.2032L38.3847 19.907L39.1325 20.1081L38.3847 20.3091L38.171 21.0129L37.9573 20.3091L37.2095 20.1081L37.9573 19.907L38.171 19.2032Z" fill="url(#paint15_linear_275_2071)"/>
<path opacity="0.75" d="M8.99989 15.4444L9.16656 15.7556L9.55545 15.8889L9.16656 16.0222L8.99989 16.3333L8.83322 16.0222L8.44434 15.8889L8.83322 15.7556L8.99989 15.4444Z" fill="url(#paint16_linear_275_2071)"/>
<path opacity="0.75" d="M40.5556 15.4444L40.7222 15.7556L41.1111 15.8889L40.7222 16.0222L40.5556 16.3333L40.3889 16.0222L40 15.8889L40.3889 15.7556L40.5556 15.4444Z" fill="url(#paint17_linear_275_2071)"/>
<path opacity="0.8" d="M24.3331 35.8889L24.4442 36.1806L24.7776 36.2778L24.4442 36.375L24.3331 36.6667L24.222 36.375L23.8887 36.2778L24.222 36.1806L24.3331 35.8889Z" fill="url(#paint18_linear_275_2071)"/>
<path opacity="0.8" d="M12.6111 23.7778L12.7083 24.0694L12.9999 24.1667L12.7083 24.2639L12.6111 24.5556L12.5138 24.2639L12.2222 24.1667L12.5138 24.0694L12.6111 23.7778Z" fill="url(#paint19_linear_275_2071)"/>
<path opacity="0.8" d="M36.1109 23.7778L36.2221 24.0694L36.5554 24.1667L36.2221 24.2639L36.1109 24.5556L35.9998 24.2639L35.6665 24.1667L35.9998 24.0694L36.1109 23.7778Z" fill="url(#paint20_linear_275_2071)"/>
<path d="M27.1666 29.5556L24.5328 24.9471L22.8693 21.7571C30.9933 19.7621 24.7977 24.9006 21.045 27.0322" stroke="black"/>
<path d="M31.6729 30.7468L27.9335 22.9009L25.5831 27.1776L23.5402 30.7468L18.9269 22.9009" stroke="black"/>
<path d="M24.5555 17.3082C24.6341 17.3082 24.6979 17.1609 24.6979 16.9793C24.6979 16.7976 24.6341 16.6504 24.5555 16.6504C24.4768 16.6504 24.4131 16.7976 24.4131 16.9793C24.4131 17.1609 24.4768 17.3082 24.5555 17.3082Z" fill="#111111"/>
<path d="M22.9534 17.5274C23.0517 17.5274 23.1314 17.4047 23.1314 17.2533C23.1314 17.102 23.0517 16.9793 22.9534 16.9793C22.8551 16.9793 22.7754 17.102 22.7754 17.2533C22.7754 17.4047 22.8551 17.5274 22.9534 17.5274Z" fill="#111111"/>
<path d="M21.3519 18.4044C21.4305 18.4044 21.4943 18.2817 21.4943 18.1304C21.4943 17.979 21.4305 17.8563 21.3519 17.8563C21.2732 17.8563 21.2095 17.979 21.2095 18.1304C21.2095 18.2817 21.2732 18.4044 21.3519 18.4044Z" fill="#111111"/>
<path d="M19.9276 19.9393C20.0062 19.9393 20.0699 19.7675 20.0699 19.5556C20.0699 19.3436 20.0062 19.1719 19.9276 19.1719C19.8489 19.1719 19.7852 19.3436 19.7852 19.5556C19.7852 19.7675 19.8489 19.9393 19.9276 19.9393Z" fill="#111111"/>
<path d="M18.6106 21.5837C18.7089 21.5837 18.7886 21.461 18.7886 21.3096C18.7886 21.1583 18.7089 21.0356 18.6106 21.0356C18.5123 21.0356 18.4326 21.1583 18.4326 21.3096C18.4326 21.461 18.5123 21.5837 18.6106 21.5837Z" fill="#111111"/>
<path d="M17.4002 23.6667C17.4985 23.6667 17.5782 23.544 17.5782 23.3926C17.5782 23.2412 17.4985 23.1185 17.4002 23.1185C17.3019 23.1185 17.2222 23.2412 17.2222 23.3926C17.2222 23.544 17.3019 23.6667 17.4002 23.6667Z" fill="#111111"/>
<path d="M26.1575 17.5274C26.2558 17.5274 26.3355 17.4047 26.3355 17.2533C26.3355 17.102 26.2558 16.9793 26.1575 16.9793C26.0592 16.9793 25.9795 17.102 25.9795 17.2533C25.9795 17.4047 26.0592 17.5274 26.1575 17.5274Z" fill="#111111"/>
<path d="M27.7596 18.4044C27.8382 18.4044 27.902 18.2817 27.902 18.1304C27.902 17.979 27.8382 17.8563 27.7596 17.8563C27.6809 17.8563 27.6172 17.979 27.6172 18.1304C27.6172 18.2817 27.6809 18.4044 27.7596 18.4044Z" fill="#111111"/>
<path d="M29.1834 19.9393C29.2621 19.9393 29.3258 19.7675 29.3258 19.5556C29.3258 19.3436 29.2621 19.1719 29.1834 19.1719C29.1048 19.1719 29.041 19.3436 29.041 19.5556C29.041 19.7675 29.1048 19.9393 29.1834 19.9393Z" fill="#111111"/>
<path d="M30.5007 21.5837C30.5991 21.5837 30.6787 21.461 30.6787 21.3096C30.6787 21.1583 30.5991 21.0356 30.5007 21.0356C30.4024 21.0356 30.3228 21.1583 30.3228 21.3096C30.3228 21.461 30.4024 21.5837 30.5007 21.5837Z" fill="#111111"/>
<path d="M31.7107 23.6667C31.809 23.6667 31.8887 23.544 31.8887 23.3926C31.8887 23.2412 31.809 23.1185 31.7107 23.1185C31.6124 23.1185 31.5327 23.2412 31.5327 23.3926C31.5327 23.544 31.6124 23.6667 31.7107 23.6667Z" fill="#111111"/>
<path d="M24.5555 16.9793L22.918 17.3081" stroke="#222222" stroke-width="0.8"/>
<path d="M22.9179 17.3082L21.3516 18.1852" stroke="#222222" stroke-width="0.8"/>
<path d="M21.3517 18.1852L19.9277 19.5007" stroke="#222222" stroke-width="0.8"/>
<path d="M19.9279 19.6104L18.5752 21.3644" stroke="#222222" stroke-width="0.8"/>
<path d="M18.5751 21.3644L17.3647 23.3378" stroke="#222222" stroke-width="0.8"/>
<path d="M24.5557 16.9793L26.1932 17.3081" stroke="#222222" stroke-width="0.8"/>
<path d="M26.1929 17.3082L27.7592 18.1852" stroke="#222222" stroke-width="0.8"/>
<path d="M27.7593 18.1852L29.1832 19.5007" stroke="#222222" stroke-width="0.8"/>
<path d="M29.1836 19.6104L30.5363 21.3644" stroke="#222222" stroke-width="0.8"/>
<path d="M30.5361 21.3644L31.7465 23.3378" stroke="#222222" stroke-width="0.8"/>
<path d="M24.5553 17.0889C24.7126 17.0889 24.8401 16.868 24.8401 16.5956C24.8401 16.3231 24.7126 16.1022 24.5553 16.1022C24.398 16.1022 24.2705 16.3231 24.2705 16.5956C24.2705 16.868 24.398 17.0889 24.5553 17.0889Z" fill="#111111"/>
<path d="M24.5557 15.4444L24.9117 16.5956L24.5557 17.7467L24.1997 16.5956L24.5557 15.4444Z" fill="url(#paint21_linear_275_2071)" stroke="#111111" stroke-width="0.8"/>
<path d="M24.5557 15.883V17.4178" stroke="#999999" stroke-width="0.4"/>
<path d="M24.2705 16.6504H24.8401" stroke="#999999" stroke-width="0.4"/>
<path d="M24.5553 16.76L24.8401 17.9208L24.5553 18.4044L24.2705 17.9208L24.5553 16.76Z" fill="#111111"/>
<path d="M11.6111 44.1111C11.9486 44.1111 12.2222 43.8375 12.2222 43.5C12.2222 43.1625 11.9486 42.8889 11.6111 42.8889C11.2736 42.8889 11 43.1625 11 43.5C11 43.8375 11.2736 44.1111 11.6111 44.1111Z" fill="#111111"/>
<path d="M14.4998 45.744C14.7124 45.6213 14.7355 45.2633 14.5514 44.9444C14.3673 44.6256 14.0457 44.4666 13.8331 44.5893C13.6206 44.712 13.5975 45.07 13.7816 45.3889C13.9657 45.7078 14.2872 45.8667 14.4998 45.744Z" fill="white" stroke="#111111" stroke-width="1.2"/>
<path d="M16.9446 47.1111C17.2821 47.1111 17.5557 46.8375 17.5557 46.5C17.5557 46.1625 17.2821 45.8889 16.9446 45.8889C16.6071 45.8889 16.3335 46.1625 16.3335 46.5C16.3335 46.8375 16.6071 47.1111 16.9446 47.1111Z" fill="#111111"/>
<path d="M19.949 48.1565C20.1907 48.1139 20.3349 47.7854 20.2709 47.4228C20.207 47.0602 19.9592 46.8008 19.7175 46.8435C19.4757 46.8861 19.3316 47.2146 19.3956 47.5772C19.4595 47.9398 19.7073 48.1992 19.949 48.1565Z" fill="white" stroke="#111111" stroke-width="1.2"/>
<path d="M25.1668 48.7778C25.5043 48.7778 25.7779 48.5042 25.7779 48.1667C25.7779 47.8292 25.5043 47.5556 25.1668 47.5556C24.8293 47.5556 24.5557 47.8292 24.5557 48.1667C24.5557 48.5042 24.8293 48.7778 25.1668 48.7778Z" fill="#111111"/>
<path d="M30.3844 48.1565C30.6261 48.1992 30.8739 47.9398 30.9378 47.5772C31.0018 47.2146 30.8576 46.8861 30.6159 46.8435C30.3742 46.8008 30.1264 47.0602 30.0625 47.4228C29.9985 47.7854 30.1427 48.1139 30.3844 48.1565Z" fill="white" stroke="#111111" stroke-width="1.2"/>
<path d="M33.3889 47.1111C33.7265 47.1111 34.0001 46.8375 34.0001 46.5C34.0001 46.1625 33.7265 45.8889 33.3889 45.8889C33.0514 45.8889 32.7778 46.1625 32.7778 46.5C32.7778 46.8375 33.0514 47.1111 33.3889 47.1111Z" fill="#111111"/>
<path d="M35.8335 45.744C36.046 45.8667 36.3676 45.7077 36.5517 45.3889C36.7358 45.07 36.7127 44.712 36.5001 44.5893C36.2876 44.4666 35.966 44.6256 35.7819 44.9444C35.5978 45.2633 35.6209 45.6213 35.8335 45.744Z" fill="white" stroke="#111111" stroke-width="1.2"/>
<path d="M38.7224 43.7778C39.0599 43.7778 39.3336 43.5042 39.3336 43.1667C39.3336 42.8292 39.0599 42.5556 38.7224 42.5556C38.3849 42.5556 38.1113 42.8292 38.1113 43.1667C38.1113 43.5042 38.3849 43.7778 38.7224 43.7778Z" fill="#111111"/>
<path d="M12.2778 43.5L13.7223 44.5" stroke="#222222" stroke-width="1.2"/>
<path d="M14.6113 45.7222L16.278 46.1667" stroke="#222222" stroke-width="1.2"/>
<path d="M17.6113 46.6111L19.3891 47.0556" stroke="#222222" stroke-width="1.2"/>
<path d="M20.5 47.5L24.5 47.9444" stroke="#222222" stroke-width="1.2"/>
<path d="M25.8335 47.9444L29.8335 47.5" stroke="#222222" stroke-width="1.2"/>
<path d="M30.9443 47.0556L32.7221 46.6111" stroke="#222222" stroke-width="1.2"/>
<path d="M34.0557 46.1667L35.7223 45.7222" stroke="#222222" stroke-width="1.2"/>
<path d="M36.6113 44.5L38.0558 43.5" stroke="#222222" stroke-width="1.2"/>
<path d="M25.6111 47.8333H24.7222C24.5995 47.8333 24.5 47.9328 24.5 48.0556V48.3889C24.5 48.5116 24.5995 48.6111 24.7222 48.6111H25.6111C25.7338 48.6111 25.8333 48.5116 25.8333 48.3889V48.0556C25.8333 47.9328 25.7338 47.8333 25.6111 47.8333Z" fill="white" stroke="#111111" stroke-width="1.2"/>
<path d="M25.1665 47.8333V48.6111" stroke="#111111" stroke-width="0.7"/>
<path d="M25.1669 48.2778L25.7224 46.9444L25.1669 46.3889L24.6113 46.9444L25.1669 48.2778Z" fill="#111111"/>
<defs>
<linearGradient id="paint0_linear_275_2071" x1="14.4443" y1="11.4444" x2="21.6657" y2="18.5547" gradientUnits="userSpaceOnUse">
<stop stop-color="white"/>
<stop offset="0.4" stop-color="#E8E8E8"/>
<stop offset="0.7" stop-color="white" stop-opacity="0.9"/>
<stop offset="1" stop-color="#CCCCCC"/>
</linearGradient>
<linearGradient id="paint1_linear_275_2071" x1="20.9998" y1="9.77778" x2="11.8165" y2="19.8462" gradientUnits="userSpaceOnUse">
<stop stop-color="#F0F0F0"/>
<stop offset="0.5" stop-color="white"/>
<stop offset="1" stop-color="#D8D8D8"/>
</linearGradient>
<linearGradient id="paint2_linear_275_2071" x1="8" y1="8.55556" x2="19.2929" y2="20.8449" gradientUnits="userSpaceOnUse">
<stop stop-color="white"/>
<stop offset="0.4" stop-color="#E8E8E8"/>
<stop offset="0.7" stop-color="white" stop-opacity="0.9"/>
<stop offset="1" stop-color="#CCCCCC"/>
</linearGradient>
<linearGradient id="paint3_linear_275_2071" x1="19.4443" y1="7.77778" x2="6.42649" y2="22.4504" gradientUnits="userSpaceOnUse">
<stop stop-color="#F0F0F0"/>
<stop offset="0.5" stop-color="white"/>
<stop offset="1" stop-color="#D8D8D8"/>
</linearGradient>
<linearGradient id="paint4_linear_275_2071" x1="2" y1="7.11111" x2="16.9273" y2="23.5864" gradientUnits="userSpaceOnUse">
<stop stop-color="white"/>
<stop offset="0.4" stop-color="#E8E8E8"/>
<stop offset="0.7" stop-color="white" stop-opacity="0.9"/>
<stop offset="1" stop-color="#CCCCCC"/>
</linearGradient>
<linearGradient id="paint5_linear_275_2071" x1="27.8887" y1="11.4444" x2="35.11" y2="18.5547" gradientUnits="userSpaceOnUse">
<stop stop-color="white"/>
<stop offset="0.4" stop-color="#E8E8E8"/>
<stop offset="0.7" stop-color="white" stop-opacity="0.9"/>
<stop offset="1" stop-color="#CCCCCC"/>
</linearGradient>
<linearGradient id="paint6_linear_275_2071" x1="38.5557" y1="9.77778" x2="29.3636" y2="19.7451" gradientUnits="userSpaceOnUse">
<stop stop-color="#F0F0F0"/>
<stop offset="0.5" stop-color="white"/>
<stop offset="1" stop-color="#D8D8D8"/>
</linearGradient>
<linearGradient id="paint7_linear_275_2071" x1="29.2222" y1="8.55556" x2="40.5151" y2="20.8449" gradientUnits="userSpaceOnUse">
<stop stop-color="white"/>
<stop offset="0.4" stop-color="#E8E8E8"/>
<stop offset="0.7" stop-color="white" stop-opacity="0.9"/>
<stop offset="1" stop-color="#CCCCCC"/>
</linearGradient>
<linearGradient id="paint8_linear_275_2071" x1="44.7778" y1="7.77778" x2="31.76" y2="22.4504" gradientUnits="userSpaceOnUse">
<stop stop-color="#F0F0F0"/>
<stop offset="0.5" stop-color="white"/>
<stop offset="1" stop-color="#D8D8D8"/>
</linearGradient>
<linearGradient id="paint9_linear_275_2071" x1="31" y1="7.11111" x2="45.9273" y2="23.5864" gradientUnits="userSpaceOnUse">
<stop stop-color="white"/>
<stop offset="0.4" stop-color="#E8E8E8"/>
<stop offset="0.7" stop-color="white" stop-opacity="0.9"/>
<stop offset="1" stop-color="#CCCCCC"/>
</linearGradient>
<linearGradient id="paint10_linear_275_2071" x1="23.4442" y1="33.2222" x2="17.2729" y2="35.6305" gradientUnits="userSpaceOnUse">
<stop stop-color="#F0F0F0"/>
<stop offset="0.5" stop-color="white"/>
<stop offset="1" stop-color="#D8D8D8"/>
</linearGradient>
<linearGradient id="paint11_linear_275_2071" x1="23.1113" y1="34" x2="27.5319" y2="35.0431" gradientUnits="userSpaceOnUse">
<stop stop-color="white"/>
<stop offset="0.4" stop-color="#E8E8E8"/>
<stop offset="0.7" stop-color="white" stop-opacity="0.9"/>
<stop offset="1" stop-color="#CCCCCC"/>
</linearGradient>
<linearGradient id="paint12_linear_275_2071" x1="28.8888" y1="33.2222" x2="22.8613" y2="35.5009" gradientUnits="userSpaceOnUse">
<stop stop-color="#F0F0F0"/>
<stop offset="0.5" stop-color="white"/>
<stop offset="1" stop-color="#D8D8D8"/>
</linearGradient>
<linearGradient id="paint13_linear_275_2071" x1="23.0767" y1="9.85294" x2="25.4852" y2="12.4123" gradientUnits="userSpaceOnUse">
<stop stop-color="white"/>
<stop offset="0.25" stop-color="#E8E8E8"/>
<stop offset="0.5" stop-color="white"/>
<stop offset="0.75" stop-color="#C8C8C8"/>
<stop offset="1" stop-color="#F0F0F0"/>
</linearGradient>
<linearGradient id="paint14_linear_275_2071" x1="12.2864" y1="19.2032" x2="10.48" y2="21.1227" gradientUnits="userSpaceOnUse">
<stop stop-color="#F8F8F8"/>
<stop offset="0.3" stop-color="#D0D0D0"/>
<stop offset="0.6" stop-color="white"/>
<stop offset="1" stop-color="#B8B8B8"/>
</linearGradient>
<linearGradient id="paint15_linear_275_2071" x1="37.2095" y1="21.0129" x2="39.0159" y2="19.0934" gradientUnits="userSpaceOnUse">
<stop stop-color="#E0E0E0"/>
<stop offset="0.4" stop-color="white"/>
<stop offset="0.8" stop-color="#D4D4D4"/>
<stop offset="1" stop-color="#F4F4F4"/>
</linearGradient>
<linearGradient id="paint16_linear_275_2071" x1="8.44434" y1="15.4444" x2="9.31154" y2="16.5285" gradientUnits="userSpaceOnUse">
<stop stop-color="white"/>
<stop offset="0.25" stop-color="#E8E8E8"/>
<stop offset="0.5" stop-color="white"/>
<stop offset="0.75" stop-color="#C8C8C8"/>
<stop offset="1" stop-color="#F0F0F0"/>
</linearGradient>
<linearGradient id="paint17_linear_275_2071" x1="41.1111" y1="15.4444" x2="40.2439" y2="16.5285" gradientUnits="userSpaceOnUse">
<stop stop-color="#F8F8F8"/>
<stop offset="0.3" stop-color="#D0D0D0"/>
<stop offset="0.6" stop-color="white"/>
<stop offset="1" stop-color="#B8B8B8"/>
</linearGradient>
<linearGradient id="paint18_linear_275_2071" x1="23.8887" y1="36.6667" x2="24.6596" y2="35.7856" gradientUnits="userSpaceOnUse">
<stop stop-color="#E0E0E0"/>
<stop offset="0.4" stop-color="white"/>
<stop offset="0.8" stop-color="#D4D4D4"/>
<stop offset="1" stop-color="#F4F4F4"/>
</linearGradient>
<linearGradient id="paint19_linear_275_2071" x1="12.2222" y1="23.7778" x2="12.9999" y2="24.5556" gradientUnits="userSpaceOnUse">
<stop stop-color="white"/>
<stop offset="0.25" stop-color="#E8E8E8"/>
<stop offset="0.5" stop-color="white"/>
<stop offset="0.75" stop-color="#C8C8C8"/>
<stop offset="1" stop-color="#F0F0F0"/>
</linearGradient>
<linearGradient id="paint20_linear_275_2071" x1="36.5554" y1="23.7778" x2="35.7845" y2="24.6588" gradientUnits="userSpaceOnUse">
<stop stop-color="#F8F8F8"/>
<stop offset="0.3" stop-color="#D0D0D0"/>
<stop offset="0.6" stop-color="white"/>
<stop offset="1" stop-color="#B8B8B8"/>
</linearGradient>
<linearGradient id="paint21_linear_275_2071" x1="24.1997" y1="15.4444" x2="25.4994" y2="15.8464" gradientUnits="userSpaceOnUse">
<stop stop-color="white"/>
<stop offset="0.3" stop-color="#E8E8E8"/>
<stop offset="0.6" stop-color="white"/>
<stop offset="1" stop-color="#B0B0B0"/>
</linearGradient>
</defs>
</svg>
