<svg width="156" height="40" viewBox="0 0 156 40" fill="none" xmlns="http://www.w3.org/2000/svg">
<path d="M63.7386 7.76V5.72H72.4186V7.88L69.4186 8.36L61.1786 32.08H57.2986L48.6986 8.12L46.3786 7.88V5.72H59.2586V7.76L55.8586 8.2L61.3386 24.68L66.8586 8.28L63.7386 7.76ZM89.9439 7.88V5.72H100.464V7.88L97.0639 8.4V32.08H93.7039L79.6239 12.56V29.32L84.1839 29.84V32H73.6239V29.84L77.0239 29.36V8.92L76.4639 8.16L73.7039 7.88V5.72H82.7439L94.5039 21.88V8.4L89.9439 7.88ZM113.335 8.04H112.415C112.388 9.69333 112.362 11.36 112.335 13.04C112.335 14.72 112.335 16.4133 112.335 18.12V19.72H113.495C115.255 19.72 116.575 19.16 117.455 18.04C118.335 16.8933 118.775 15.4133 118.775 13.6C118.775 11.76 118.295 10.3733 117.335 9.44C116.402 8.50667 115.068 8.04 113.335 8.04ZM102.535 7.88V5.72H113.415C116.188 5.72 118.428 6.05333 120.135 6.72C121.842 7.36 123.082 8.28 123.855 9.48C124.655 10.6533 125.055 12.04 125.055 13.64C125.055 15.16 124.682 16.56 123.935 17.84C123.215 19.0933 122.015 20.0933 120.335 20.84C118.655 21.5867 116.362 21.96 113.455 21.96H112.335C112.335 23.1067 112.335 24.32 112.335 25.6C112.362 26.8533 112.388 28.1467 112.415 29.48L115.975 29.84V32H102.535V29.84L105.535 29.52C105.588 27.8933 105.615 26.2533 105.615 24.6C105.615 22.9467 105.615 21.28 105.615 19.6V18.12C105.615 16.4667 105.615 14.8133 105.615 13.16C105.615 11.48 105.588 9.82667 105.535 8.2L102.535 7.88ZM142.035 7.88V5.72H154.675V7.88L151.715 8.2C151.689 9.82667 151.662 11.4667 151.635 13.12C151.635 14.7733 151.635 16.44 151.635 18.12V19.6C151.635 21.2267 151.635 22.88 151.635 24.56C151.662 26.2133 151.689 27.8667 151.715 29.52L154.675 29.84V32H142.035V29.84L144.835 29.56C144.889 27.9067 144.915 26.2533 144.915 24.6C144.915 22.9467 144.915 21.3067 144.915 19.68H136.395C136.395 21.4667 136.395 23.1733 136.395 24.8C136.422 26.4 136.449 27.9867 136.475 29.56L139.275 29.84V32H126.675V29.84L129.595 29.52C129.649 27.8933 129.675 26.2533 129.675 24.6C129.675 22.9467 129.675 21.28 129.675 19.6V18.12C129.675 16.4667 129.675 14.8133 129.675 13.16C129.675 11.5067 129.649 9.85333 129.595 8.2L126.675 7.88V5.72H139.275V7.88L136.475 8.16C136.449 9.78667 136.422 11.4 136.395 13C136.395 14.6 136.395 16.04 136.395 17.32H144.915C144.915 15.8 144.915 14.28 144.915 12.76C144.915 11.2133 144.889 9.68 144.835 8.16L142.035 7.88Z" fill="#063460"/>
<path d="M19.7333 36.9778C29.5517 36.9778 37.5111 29.0184 37.5111 19.2C37.5111 9.38162 29.5517 1.42224 19.7333 1.42224C9.91493 1.42224 1.95555 9.38162 1.95555 19.2C1.95555 29.0184 9.91493 36.9778 19.7333 36.9778Z" stroke="#111111" stroke-width="0.5"/>
<path d="M19.8222 34.7555C28.4133 34.7555 35.3778 27.7911 35.3778 19.2C35.3778 10.6089 28.4133 3.64441 19.8222 3.64441C11.2311 3.64441 4.26666 10.6089 4.26666 19.2C4.26666 27.7911 11.2311 34.7555 19.8222 34.7555Z" stroke="#111111"/>
<path opacity="0.9" d="M20 0L20.3871 0.859068L20 1.22724L19.6129 0.859068L20 0Z" fill="#111111"/>
<path opacity="0.9" d="M0 19.0222L0.903226 18.6541L1.29032 19.0222L0.903226 19.3904L0 19.0222Z" fill="#111111"/>
<path opacity="0.9" d="M38.7097 19.0222L39.0968 18.6541L40 19.0222L39.0968 19.3904L38.7097 19.0222Z" fill="#111111"/>
<path opacity="0.7" d="M6.58066 6.25892L6.96775 5.89075L7.35485 6.25892L6.96775 6.62709L6.58066 6.25892Z" fill="#111111"/>
<path opacity="0.7" d="M32.6452 6.25892L33.0323 5.89075L33.4194 6.25892L33.0323 6.62709L32.6452 6.25892Z" fill="#111111"/>
<path opacity="0.7" d="M6.58066 31.7855L6.96775 31.4174L7.35485 31.7855L6.96775 32.1537L6.58066 31.7855Z" fill="#111111"/>
<path opacity="0.7" d="M32.2667 31.746L32.6538 31.3778L33.0409 31.746L32.6538 32.1142L32.2667 31.746Z" fill="#111111"/>
<path d="M16.8997 14.9333C15.6067 13.7126 13.2795 11.4341 11.5556 9.15552C12.1589 9.15552 13.2795 9.96929 14.1414 11.1086C15.1758 12.4106 16.2101 13.7126 17.2444 14.9333H16.8997Z" fill="url(#paint0_linear_308_1241)" stroke="#AAAAAA" stroke-width="0.4"/>
<path d="M16.5418 15.2C14.5626 13.44 11.6369 10.7199 8.71111 7.83978C9.39952 7.67977 10.7764 8.63981 11.9811 9.75985C13.53 11.3599 15.079 13.12 16.8 15.04L16.5418 15.2Z" fill="url(#paint1_linear_308_1241)" stroke="#AAAAAA" stroke-width="0.4"/>
<path d="M15.9264 15.9111C13.3747 13.6527 9.97241 10.4263 6.39999 6.87733C7.25057 6.63535 8.7816 7.76458 10.1425 9.13578C12.0138 11.0716 13.8851 13.1687 16.2667 15.7498L15.9264 15.9111Z" fill="url(#paint2_linear_308_1241)" stroke="#999999" stroke-width="0.4"/>
<path d="M15.2129 16.7111C11.9575 13.9815 7.84541 10.2885 3.73334 6.27437C4.67569 5.95324 6.47472 7.15748 8.01675 8.68284C10.2441 10.9307 12.6428 13.3392 15.5556 16.5505L15.2129 16.7111Z" fill="url(#paint3_linear_308_1241)" stroke="#999999" stroke-width="0.4"/>
<path d="M14.5049 17.6888C10.7692 14.7872 6.01482 10.4347 1.60001 5.75983C2.61881 5.35682 4.65642 6.72705 6.35442 8.41968C8.90143 11.0795 11.6182 13.9812 14.8445 17.5276L14.5049 17.6888Z" fill="url(#paint4_linear_308_1241)" stroke="#888888" stroke-width="0.5"/>
<path d="M22.6559 14.9333C23.9488 13.7126 26.2761 11.4341 28 9.15552C27.3966 9.15552 26.2761 9.96929 25.4141 11.1086C24.3798 12.4106 23.3455 13.7126 22.3111 14.9333H22.6559Z" fill="url(#paint5_linear_308_1241)" stroke="#AAAAAA" stroke-width="0.4"/>
<path d="M23.0998 15.2C25.0572 13.44 27.9508 10.7199 30.8445 7.83978C30.1636 7.67977 28.8019 8.63981 27.6104 9.75985C26.0785 11.3599 24.5466 13.12 22.8445 15.04L23.0998 15.2Z" fill="url(#paint6_linear_308_1241)" stroke="#AAAAAA" stroke-width="0.4"/>
<path d="M23.718 15.9111C26.2697 13.6527 29.672 10.4263 33.2444 6.87733C32.3939 6.63535 30.8628 7.76458 29.5019 9.13578C27.6307 11.0716 25.7594 13.1687 23.3778 15.7498L23.718 15.9111Z" fill="url(#paint7_linear_308_1241)" stroke="#999999" stroke-width="0.4"/>
<path d="M24.3427 16.7111C27.5981 13.9815 31.7101 10.2885 35.8222 6.27437C34.8799 5.95324 33.0808 7.15748 31.5388 8.68284C29.3114 10.9307 26.9127 13.3392 24 16.5505L24.3427 16.7111Z" fill="url(#paint8_linear_308_1241)" stroke="#999999" stroke-width="0.4"/>
<path d="M25.1396 17.6888C28.8752 14.7872 33.6296 10.4347 38.0444 5.75983C37.0256 5.35682 34.988 6.72705 33.29 8.41968C30.743 11.0795 28.0262 13.9812 24.8 17.5276L25.1396 17.6888Z" fill="url(#paint9_linear_308_1241)" stroke="#888888" stroke-width="0.5"/>
<path d="M18.3451 26.5778C17.8236 29.0028 16.9543 31.4279 15.9111 33.853C16.4327 34.0147 17.302 32.7213 17.9974 30.9429C18.6929 29.1645 18.8667 27.7095 18.6929 26.5778H18.3451Z" fill="url(#paint10_linear_308_1241)" stroke="#AAAAAA" stroke-width="0.4"/>
<path d="M19.5254 27.2C19.5254 29.9404 19.1799 32.5196 18.4889 35.0988C19.1799 35.26 19.871 33.8092 20.2165 32.036C20.562 30.2628 20.2165 28.4896 19.6982 27.2H19.5254Z" fill="url(#paint11_linear_308_1241)" stroke="#999999" stroke-width="0.4"/>
<path d="M20.7532 26.5778C21.2584 29.0028 22.1006 31.4279 23.1111 33.853C22.6058 34.0147 21.7637 32.7213 21.09 30.9429C20.4163 29.1645 20.2479 27.7095 20.4163 26.5778H20.7532Z" fill="url(#paint12_linear_308_1241)" stroke="#AAAAAA" stroke-width="0.4"/>
<path opacity="0.9" d="M19.4873 7.88232L19.7437 8.60621L20.5129 8.84751L19.7437 9.08881L19.4873 9.8127L19.2309 9.08881L18.4616 8.84751L19.2309 8.60621L19.4873 7.88232Z" fill="url(#paint13_linear_308_1241)"/>
<path opacity="0.7" d="M19.4872 8.36487L19.5727 8.76703L20 8.84746L19.5727 8.92789L19.4872 9.33005L19.4017 8.92789L18.9744 8.84746L19.4017 8.76703L19.4872 8.36487Z" fill="white"/>
<path opacity="0.85" d="M9.05987 15.3625L9.23081 15.9256L9.8291 16.0864L9.23081 16.2473L9.05987 16.8103L8.88892 16.2473L8.29063 16.0864L8.88892 15.9256L9.05987 15.3625Z" fill="url(#paint14_linear_308_1241)"/>
<path opacity="0.85" d="M30.5369 15.3625L30.7078 15.9256L31.3061 16.0864L30.7078 16.2473L30.5369 16.8103L30.3659 16.2473L29.7676 16.0864L30.3659 15.9256L30.5369 15.3625Z" fill="url(#paint15_linear_308_1241)"/>
<path opacity="0.75" d="M7.2 12.3556L7.33333 12.6045L7.64444 12.7111L7.33333 12.8178L7.2 13.0667L7.06667 12.8178L6.75555 12.7111L7.06667 12.6045L7.2 12.3556Z" fill="url(#paint16_linear_308_1241)"/>
<path opacity="0.75" d="M32.4444 12.3556L32.5778 12.6045L32.8889 12.7111L32.5778 12.8178L32.4444 13.0667L32.3111 12.8178L32 12.7111L32.3111 12.6045L32.4444 12.3556Z" fill="url(#paint17_linear_308_1241)"/>
<path opacity="0.8" d="M19.4667 28.7111L19.5556 28.9444L19.8222 29.0222L19.5556 29.0999L19.4667 29.3333L19.3778 29.0999L19.1111 29.0222L19.3778 28.9444L19.4667 28.7111Z" fill="url(#paint18_linear_308_1241)"/>
<path opacity="0.8" d="M10.0889 19.0222L10.1667 19.2556L10.4 19.3333L10.1667 19.4111L10.0889 19.6444L10.0111 19.4111L9.77777 19.3333L10.0111 19.2556L10.0889 19.0222Z" fill="url(#paint19_linear_308_1241)"/>
<path opacity="0.8" d="M28.8889 19.0222L28.9778 19.2556L29.2444 19.3333L28.9778 19.4111L28.8889 19.6444L28.8 19.4111L28.5333 19.3333L28.8 19.2556L28.8889 19.0222Z" fill="url(#paint20_linear_308_1241)"/>
<path d="M21.7333 23.6445L19.6263 19.9577L18.2955 17.4057C24.7947 15.8097 19.8382 19.9205 16.8361 21.6258" stroke="black" stroke-width="0.5"/>
<path d="M25.3385 24.5975L22.347 18.3208L20.4667 21.7421L18.8324 24.5975L15.1417 18.3208" stroke="black" stroke-width="0.5"/>
<path d="M19.6444 13.8465C19.7073 13.8465 19.7583 13.7287 19.7583 13.5834C19.7583 13.4381 19.7073 13.3203 19.6444 13.3203C19.5815 13.3203 19.5305 13.4381 19.5305 13.5834C19.5305 13.7287 19.5815 13.8465 19.6444 13.8465Z" fill="#111111"/>
<path d="M18.3629 14.0219C18.4415 14.0219 18.5053 13.9237 18.5053 13.8026C18.5053 13.6815 18.4415 13.5834 18.3629 13.5834C18.2843 13.5834 18.2205 13.6815 18.2205 13.8026C18.2205 13.9237 18.2843 14.0219 18.3629 14.0219Z" fill="#111111"/>
<path d="M17.0813 14.7236C17.1443 14.7236 17.1953 14.6254 17.1953 14.5043C17.1953 14.3832 17.1443 14.285 17.0813 14.285C17.0184 14.285 16.9674 14.3832 16.9674 14.5043C16.9674 14.6254 17.0184 14.7236 17.0813 14.7236Z" fill="#111111"/>
<path d="M15.9422 15.9515C16.0051 15.9515 16.0561 15.814 16.0561 15.6445C16.0561 15.475 16.0051 15.3375 15.9422 15.3375C15.8793 15.3375 15.8283 15.475 15.8283 15.6445C15.8283 15.814 15.8793 15.9515 15.9422 15.9515Z" fill="#111111"/>
<path d="M14.8884 17.267C14.9671 17.267 15.0308 17.1688 15.0308 17.0478C15.0308 16.9267 14.9671 16.8285 14.8884 16.8285C14.8098 16.8285 14.746 16.9267 14.746 17.0478C14.746 17.1688 14.8098 17.267 14.8884 17.267Z" fill="#111111"/>
<path d="M13.9202 18.9334C13.9988 18.9334 14.0626 18.8352 14.0626 18.7141C14.0626 18.593 13.9988 18.4949 13.9202 18.4949C13.8415 18.4949 13.7778 18.593 13.7778 18.7141C13.7778 18.8352 13.8415 18.9334 13.9202 18.9334Z" fill="#111111"/>
<path d="M20.926 14.0219C21.0046 14.0219 21.0684 13.9237 21.0684 13.8026C21.0684 13.6815 21.0046 13.5834 20.926 13.5834C20.8474 13.5834 20.7836 13.6815 20.7836 13.8026C20.7836 13.9237 20.8474 14.0219 20.926 14.0219Z" fill="#111111"/>
<path d="M22.2075 14.7236C22.2705 14.7236 22.3215 14.6254 22.3215 14.5043C22.3215 14.3832 22.2705 14.285 22.2075 14.285C22.1446 14.285 22.0936 14.3832 22.0936 14.5043C22.0936 14.6254 22.1446 14.7236 22.2075 14.7236Z" fill="#111111"/>
<path d="M23.3467 15.9515C23.4096 15.9515 23.4607 15.814 23.4607 15.6445C23.4607 15.475 23.4096 15.3375 23.3467 15.3375C23.2838 15.3375 23.2328 15.475 23.2328 15.6445C23.2328 15.814 23.2838 15.9515 23.3467 15.9515Z" fill="#111111"/>
<path d="M24.4005 17.267C24.4791 17.267 24.5428 17.1688 24.5428 17.0478C24.5428 16.9267 24.4791 16.8285 24.4005 16.8285C24.3218 16.8285 24.2581 16.9267 24.2581 17.0478C24.2581 17.1688 24.3218 17.267 24.4005 17.267Z" fill="#111111"/>
<path d="M25.3687 18.9334C25.4474 18.9334 25.5111 18.8352 25.5111 18.7141C25.5111 18.593 25.4474 18.4949 25.3687 18.4949C25.2901 18.4949 25.2263 18.593 25.2263 18.7141C25.2263 18.8352 25.2901 18.9334 25.3687 18.9334Z" fill="#111111"/>
<path d="M19.6444 13.5834L18.3344 13.8465" stroke="#222222" stroke-width="0.8"/>
<path d="M18.3344 13.8466L17.0813 14.5482" stroke="#222222" stroke-width="0.8"/>
<path d="M17.0814 14.5481L15.9422 15.6005" stroke="#222222" stroke-width="0.8"/>
<path d="M15.9422 15.6882L14.86 17.0915" stroke="#222222" stroke-width="0.8"/>
<path d="M14.86 17.0916L13.8917 18.6702" stroke="#222222" stroke-width="0.8"/>
<path d="M19.6444 13.5834L20.9545 13.8465" stroke="#222222" stroke-width="0.8"/>
<path d="M20.9545 13.8466L22.2075 14.5482" stroke="#222222" stroke-width="0.8"/>
<path d="M22.2075 14.5481L23.3467 15.6005" stroke="#222222" stroke-width="0.8"/>
<path d="M23.3467 15.6882L24.4289 17.0915" stroke="#222222" stroke-width="0.8"/>
<path d="M24.4289 17.0916L25.3972 18.6702" stroke="#222222" stroke-width="0.8"/>
<path d="M19.6444 13.6712C19.7703 13.6712 19.8723 13.4945 19.8723 13.2765C19.8723 13.0585 19.7703 12.8818 19.6444 12.8818C19.5186 12.8818 19.4166 13.0585 19.4166 13.2765C19.4166 13.4945 19.5186 13.6712 19.6444 13.6712Z" fill="#111111"/>
<path d="M19.6444 12.3556L19.9292 13.2765L19.6444 14.1974L19.3596 13.2765L19.6444 12.3556Z" fill="url(#paint21_linear_308_1241)" stroke="#111111" stroke-width="0.8"/>
<path d="M19.6444 12.7064V13.9343" stroke="#999999" stroke-width="0.4"/>
<path d="M19.4166 13.3203H19.8723" stroke="#999999" stroke-width="0.4"/>
<path d="M19.6444 13.408L19.8723 14.3366L19.6444 14.7235L19.4166 14.3366L19.6444 13.408Z" fill="#111111"/>
<path d="M9.28889 35.2889C9.5589 35.2889 9.77778 35.0701 9.77778 34.8C9.77778 34.53 9.5589 34.3112 9.28889 34.3112C9.01889 34.3112 8.8 34.53 8.8 34.8C8.8 35.0701 9.01889 35.2889 9.28889 35.2889Z" fill="#111111"/>
<path d="M11.6 36.5952C11.7701 36.497 11.7886 36.2107 11.6413 35.9556C11.494 35.7005 11.2368 35.5733 11.0667 35.6715C10.8966 35.7696 10.8782 36.056 11.0254 36.3111C11.1727 36.5662 11.43 36.6934 11.6 36.5952Z" fill="white" stroke="#111111" stroke-width="0.2"/>
<path d="M13.5556 37.6888C13.8256 37.6888 14.0444 37.47 14.0444 37.1999C14.0444 36.9299 13.8256 36.7111 13.5556 36.7111C13.2855 36.7111 13.0667 36.9299 13.0667 37.1999C13.0667 37.47 13.2855 37.6888 13.5556 37.6888Z" fill="#111111"/>
<path d="M15.9593 38.5252C16.1526 38.4911 16.2679 38.2283 16.2168 37.9382C16.1656 37.6482 15.9674 37.4407 15.774 37.4748C15.5806 37.5089 15.4653 37.7717 15.5165 38.0617C15.5676 38.3518 15.7659 38.5593 15.9593 38.5252Z" fill="white" stroke="#111111" stroke-width="0.2"/>
<path d="M20.1333 39.0222C20.4033 39.0222 20.6222 38.8033 20.6222 38.5333C20.6222 38.2633 20.4033 38.0444 20.1333 38.0444C19.8633 38.0444 19.6444 38.2633 19.6444 38.5333C19.6444 38.8033 19.8633 39.0222 20.1333 39.0222Z" fill="#111111"/>
<path d="M24.3074 38.5253C24.5008 38.5594 24.699 38.3519 24.7502 38.0618C24.8013 37.7717 24.686 37.5089 24.4926 37.4748C24.2992 37.4407 24.101 37.6482 24.0498 37.9383C23.9987 38.2284 24.114 38.4912 24.3074 38.5253Z" fill="white" stroke="#111111" stroke-width="0.2"/>
<path d="M26.7111 37.6888C26.9811 37.6888 27.2 37.47 27.2 37.1999C27.2 36.9299 26.9811 36.7111 26.7111 36.7111C26.4411 36.7111 26.2222 36.9299 26.2222 37.1999C26.2222 37.47 26.4411 37.6888 26.7111 37.6888Z" fill="#111111"/>
<path d="M28.6667 36.5952C28.8367 36.6934 29.094 36.5662 29.2413 36.3111C29.3885 36.056 29.3701 35.7696 29.2 35.6714C29.03 35.5732 28.7727 35.7004 28.6254 35.9555C28.4781 36.2106 28.4966 36.497 28.6667 36.5952Z" fill="white" stroke="#111111" stroke-width="0.2"/>
<path d="M30.9778 35.0222C31.2478 35.0222 31.4667 34.8033 31.4667 34.5333C31.4667 34.2633 31.2478 34.0444 30.9778 34.0444C30.7078 34.0444 30.4889 34.2633 30.4889 34.5333C30.4889 34.8033 30.7078 35.0222 30.9778 35.0222Z" fill="#111111"/>
<path d="M9.82222 34.8L10.9778 35.6" stroke="#222222" stroke-width="0.2"/>
<path d="M11.6889 36.5778L13.0222 36.9333" stroke="#222222" stroke-width="0.2"/>
<path d="M14.0889 37.2889L15.5111 37.6445" stroke="#222222" stroke-width="0.2"/>
<path d="M16.4 38L19.6 38.3556" stroke="#222222" stroke-width="0.2"/>
<path d="M20.6667 38.3556L23.8667 38" stroke="#222222" stroke-width="0.2"/>
<path d="M24.7556 37.6445L26.1778 37.2889" stroke="#222222" stroke-width="0.2"/>
<path d="M27.2444 36.9333L28.5778 36.5778" stroke="#222222" stroke-width="0.2"/>
<path d="M29.2889 35.6L30.4444 34.8" stroke="#222222" stroke-width="0.2"/>
<path d="M20.4889 38.2667H19.7778C19.6796 38.2667 19.6 38.3463 19.6 38.4445V38.7112C19.6 38.8094 19.6796 38.8889 19.7778 38.8889H20.4889C20.5871 38.8889 20.6667 38.8094 20.6667 38.7112V38.4445C20.6667 38.3463 20.5871 38.2667 20.4889 38.2667Z" fill="white" stroke="#111111" stroke-width="0.2"/>
<path d="M20.1333 38.2667V38.8889" stroke="#111111" stroke-width="0.7"/>
<path d="M20.1333 38.6222L20.5778 37.5555L20.1333 37.1111L19.6889 37.5555L20.1333 38.6222Z" fill="#111111"/>
<defs>
<linearGradient id="paint0_linear_308_1241" x1="11.5556" y1="9.15552" x2="17.3326" y2="14.8437" gradientUnits="userSpaceOnUse">
<stop stop-color="white"/>
<stop offset="0.4" stop-color="#E8E8E8"/>
<stop offset="0.7" stop-color="white" stop-opacity="0.9"/>
<stop offset="1" stop-color="#CCCCCC"/>
</linearGradient>
<linearGradient id="paint1_linear_308_1241" x1="16.8" y1="7.82227" x2="9.45334" y2="15.877" gradientUnits="userSpaceOnUse">
<stop stop-color="#F0F0F0"/>
<stop offset="0.5" stop-color="white"/>
<stop offset="1" stop-color="#D8D8D8"/>
</linearGradient>
<linearGradient id="paint2_linear_308_1241" x1="6.39999" y1="6.84448" x2="15.4343" y2="16.676" gradientUnits="userSpaceOnUse">
<stop stop-color="white"/>
<stop offset="0.4" stop-color="#E8E8E8"/>
<stop offset="0.7" stop-color="white" stop-opacity="0.9"/>
<stop offset="1" stop-color="#CCCCCC"/>
</linearGradient>
<linearGradient id="paint3_linear_308_1241" x1="15.5556" y1="6.22217" x2="5.14132" y2="17.9602" gradientUnits="userSpaceOnUse">
<stop stop-color="#F0F0F0"/>
<stop offset="0.5" stop-color="white"/>
<stop offset="1" stop-color="#D8D8D8"/>
</linearGradient>
<linearGradient id="paint4_linear_308_1241" x1="1.60001" y1="5.68884" x2="13.5418" y2="18.8691" gradientUnits="userSpaceOnUse">
<stop stop-color="white"/>
<stop offset="0.4" stop-color="#E8E8E8"/>
<stop offset="0.7" stop-color="white" stop-opacity="0.9"/>
<stop offset="1" stop-color="#CCCCCC"/>
</linearGradient>
<linearGradient id="paint5_linear_308_1241" x1="22.3111" y1="9.15552" x2="28.0882" y2="14.8437" gradientUnits="userSpaceOnUse">
<stop stop-color="white"/>
<stop offset="0.4" stop-color="#E8E8E8"/>
<stop offset="0.7" stop-color="white" stop-opacity="0.9"/>
<stop offset="1" stop-color="#CCCCCC"/>
</linearGradient>
<linearGradient id="paint6_linear_308_1241" x1="30.8445" y1="7.82227" x2="23.4908" y2="15.7961" gradientUnits="userSpaceOnUse">
<stop stop-color="#F0F0F0"/>
<stop offset="0.5" stop-color="white"/>
<stop offset="1" stop-color="#D8D8D8"/>
</linearGradient>
<linearGradient id="paint7_linear_308_1241" x1="23.3778" y1="6.84448" x2="32.4121" y2="16.676" gradientUnits="userSpaceOnUse">
<stop stop-color="white"/>
<stop offset="0.4" stop-color="#E8E8E8"/>
<stop offset="0.7" stop-color="white" stop-opacity="0.9"/>
<stop offset="1" stop-color="#CCCCCC"/>
</linearGradient>
<linearGradient id="paint8_linear_308_1241" x1="35.8222" y1="6.22217" x2="25.408" y2="17.9602" gradientUnits="userSpaceOnUse">
<stop stop-color="#F0F0F0"/>
<stop offset="0.5" stop-color="white"/>
<stop offset="1" stop-color="#D8D8D8"/>
</linearGradient>
<linearGradient id="paint9_linear_308_1241" x1="24.8" y1="5.68884" x2="36.7418" y2="18.8691" gradientUnits="userSpaceOnUse">
<stop stop-color="white"/>
<stop offset="0.4" stop-color="#E8E8E8"/>
<stop offset="0.7" stop-color="white" stop-opacity="0.9"/>
<stop offset="1" stop-color="#CCCCCC"/>
</linearGradient>
<linearGradient id="paint10_linear_308_1241" x1="18.7556" y1="26.5778" x2="13.8185" y2="28.5044" gradientUnits="userSpaceOnUse">
<stop stop-color="#F0F0F0"/>
<stop offset="0.5" stop-color="white"/>
<stop offset="1" stop-color="#D8D8D8"/>
</linearGradient>
<linearGradient id="paint11_linear_308_1241" x1="18.4889" y1="27.2" x2="22.0253" y2="28.0344" gradientUnits="userSpaceOnUse">
<stop stop-color="white"/>
<stop offset="0.4" stop-color="#E8E8E8"/>
<stop offset="0.7" stop-color="white" stop-opacity="0.9"/>
<stop offset="1" stop-color="#CCCCCC"/>
</linearGradient>
<linearGradient id="paint12_linear_308_1241" x1="23.1111" y1="26.5778" x2="18.2892" y2="28.4007" gradientUnits="userSpaceOnUse">
<stop stop-color="#F0F0F0"/>
<stop offset="0.5" stop-color="white"/>
<stop offset="1" stop-color="#D8D8D8"/>
</linearGradient>
<linearGradient id="paint13_linear_308_1241" x1="18.4616" y1="7.88232" x2="20.3884" y2="9.92983" gradientUnits="userSpaceOnUse">
<stop stop-color="white"/>
<stop offset="0.25" stop-color="#E8E8E8"/>
<stop offset="0.5" stop-color="white"/>
<stop offset="0.75" stop-color="#C8C8C8"/>
<stop offset="1" stop-color="#F0F0F0"/>
</linearGradient>
<linearGradient id="paint14_linear_308_1241" x1="9.8291" y1="15.3625" x2="8.38398" y2="16.8982" gradientUnits="userSpaceOnUse">
<stop stop-color="#F8F8F8"/>
<stop offset="0.3" stop-color="#D0D0D0"/>
<stop offset="0.6" stop-color="white"/>
<stop offset="1" stop-color="#B8B8B8"/>
</linearGradient>
<linearGradient id="paint15_linear_308_1241" x1="29.7676" y1="16.8103" x2="31.2128" y2="15.2747" gradientUnits="userSpaceOnUse">
<stop stop-color="#E0E0E0"/>
<stop offset="0.4" stop-color="white"/>
<stop offset="0.8" stop-color="#D4D4D4"/>
<stop offset="1" stop-color="#F4F4F4"/>
</linearGradient>
<linearGradient id="paint16_linear_308_1241" x1="6.75555" y1="12.3556" x2="7.44932" y2="13.2228" gradientUnits="userSpaceOnUse">
<stop stop-color="white"/>
<stop offset="0.25" stop-color="#E8E8E8"/>
<stop offset="0.5" stop-color="white"/>
<stop offset="0.75" stop-color="#C8C8C8"/>
<stop offset="1" stop-color="#F0F0F0"/>
</linearGradient>
<linearGradient id="paint17_linear_308_1241" x1="32.8889" y1="12.3556" x2="32.1951" y2="13.2228" gradientUnits="userSpaceOnUse">
<stop stop-color="#F8F8F8"/>
<stop offset="0.3" stop-color="#D0D0D0"/>
<stop offset="0.6" stop-color="white"/>
<stop offset="1" stop-color="#B8B8B8"/>
</linearGradient>
<linearGradient id="paint18_linear_308_1241" x1="19.1111" y1="29.3333" x2="19.7278" y2="28.6285" gradientUnits="userSpaceOnUse">
<stop stop-color="#E0E0E0"/>
<stop offset="0.4" stop-color="white"/>
<stop offset="0.8" stop-color="#D4D4D4"/>
<stop offset="1" stop-color="#F4F4F4"/>
</linearGradient>
<linearGradient id="paint19_linear_308_1241" x1="9.77777" y1="19.0222" x2="10.4" y2="19.6444" gradientUnits="userSpaceOnUse">
<stop stop-color="white"/>
<stop offset="0.25" stop-color="#E8E8E8"/>
<stop offset="0.5" stop-color="white"/>
<stop offset="0.75" stop-color="#C8C8C8"/>
<stop offset="1" stop-color="#F0F0F0"/>
</linearGradient>
<linearGradient id="paint20_linear_308_1241" x1="29.2444" y1="19.0222" x2="28.6277" y2="19.727" gradientUnits="userSpaceOnUse">
<stop stop-color="#F8F8F8"/>
<stop offset="0.3" stop-color="#D0D0D0"/>
<stop offset="0.6" stop-color="white"/>
<stop offset="1" stop-color="#B8B8B8"/>
</linearGradient>
<linearGradient id="paint21_linear_308_1241" x1="19.3596" y1="12.3556" x2="20.3994" y2="12.6771" gradientUnits="userSpaceOnUse">
<stop stop-color="white"/>
<stop offset="0.3" stop-color="#E8E8E8"/>
<stop offset="0.6" stop-color="white"/>
<stop offset="1" stop-color="#B0B0B0"/>
</linearGradient>
</defs>
</svg>
